<svg width="557.2" height="97.3" viewBox="0 0 557.2 97.3" xmlns="http://www.w3.org/2000/svg"><g id="svgGroup" stroke-linecap="round" fill-rule="evenodd" font-size="9pt" stroke="#000" stroke-width="0.25mm" fill="#000" style="stroke:#000;stroke-width:0.25mm;fill:#000"><path d="M 207.3 74.6 L 195.7 73.6 Q 197.6 54.9 197.6 45.1 A 45.82 45.82 0 0 0 197.505 42.021 Q 197.195 37.444 195.867 35.984 A 1.923 1.923 0 0 0 194.4 35.3 Q 193.205 35.3 191.645 38.581 A 30.238 30.238 0 0 0 191.1 39.8 A 33.449 33.449 0 0 0 189.103 46.455 A 40.729 40.729 0 0 0 188.6 49.8 Q 188.4 62.3 187.8 72.1 L 176.1 71 Q 176.816 58.387 176.891 49.775 A 225.514 225.514 0 0 0 176.9 47.8 A 50.545 50.545 0 0 0 176.826 44.941 Q 176.597 40.925 175.659 39.494 A 1.496 1.496 0 0 0 174.4 38.7 Q 173.089 38.7 171.141 42.425 A 39.862 39.862 0 0 0 170.25 44.25 Q 167.7 49.8 166.6 55.9 A 266.342 266.342 0 0 0 167.311 72.459 A 294.296 294.296 0 0 0 167.5 74.9 L 155.8 73.8 Q 154.7 59.7 154.7 48.1 Q 154.7 36.5 155.3 26.4 L 163.6 27 Q 164.2 29.7 165.3 36.8 A 34.197 34.197 0 0 1 167.769 33.378 Q 170.618 29.942 173.438 28.926 A 6.932 6.932 0 0 1 175.8 28.5 A 14.113 14.113 0 0 1 179.651 28.996 A 10.149 10.149 0 0 1 185.1 32.7 A 31.457 31.457 0 0 1 187.532 29.555 Q 191.495 25.1 195.4 25.1 Q 206.863 25.1 208.873 39.313 A 47.976 47.976 0 0 1 209.3 46 Q 209.3 54.113 208.355 64.588 A 353.949 353.949 0 0 1 207.3 74.6 Z M 556.1 73.2 L 544.5 72.1 Q 545.2 57.4 545.2 43.2 Q 545.2 40.048 544.245 38.771 A 2.068 2.068 0 0 0 542.5 37.9 A 2.304 2.304 0 0 0 540.895 38.748 Q 538.389 41.345 535.6 51.9 A 440.63 440.63 0 0 1 535.281 61.868 Q 535.057 67.105 534.704 72.925 A 738.708 738.708 0 0 1 534.6 74.6 L 522.9 73.5 Q 524.2 56.3 524.2 35.1 Q 524.2 13.9 523.5 1 L 535.2 2.1 Q 536 16.2 536 32.4 A 24.209 24.209 0 0 1 538.398 29.807 Q 541.765 26.7 545.05 26.7 A 10.741 10.741 0 0 1 548.57 27.254 A 9.1 9.1 0 0 1 552.3 29.7 A 17.809 17.809 0 0 1 557.055 40.233 A 23.955 23.955 0 0 1 557.2 42.9 A 422.578 422.578 0 0 1 556.581 65.381 A 482.203 482.203 0 0 1 556.1 73.2 Z M 115.3 30.8 L 122.3 31.8 A 49.262 49.262 0 0 0 121.672 36.006 Q 121 42.083 121 51.75 Q 121 65.2 120.25 71.55 Q 119.5 77.9 117.8 84 Q 116.322 89.303 113.636 92.716 A 17.184 17.184 0 0 1 112.8 93.7 Q 109.5 97.3 104.1 97.3 A 13.874 13.874 0 0 1 97.109 95.359 A 19.974 19.974 0 0 1 93.8 92.95 Q 88.9 88.6 85.9 82.5 L 94.3 78.9 Q 98.2 86.5 103.4 86.5 A 3.223 3.223 0 0 0 105.67 85.502 Q 106.813 84.405 107.728 82.104 A 23.623 23.623 0 0 0 108.4 80.15 Q 110.3 73.8 110.3 64.4 A 36.928 36.928 0 0 1 107.88 68.217 Q 103.72 73.9 99.35 73.9 A 13.465 13.465 0 0 1 95.122 73.265 A 11.115 11.115 0 0 1 90.25 70.05 A 11.967 11.967 0 0 1 87.907 65.959 Q 86.8 62.796 86.8 58.35 Q 86.8 50.5 89.5 42.75 A 51.104 51.104 0 0 1 91.8 37.168 Q 93.743 33.184 96.15 30.35 Q 99.671 26.206 102.913 25.755 A 5.711 5.711 0 0 1 103.7 25.7 A 15.381 15.381 0 0 1 112.588 28.569 A 21.602 21.602 0 0 1 115.3 30.8 Z M 344.5 65.2 L 349.9 59.1 Q 353.08 64.585 356.513 65.71 A 5.709 5.709 0 0 0 358.3 66 Q 359.8 66 360.9 65.15 Q 362 64.3 362 62.8 A 4.809 4.809 0 0 0 361.056 60.003 Q 359.916 58.377 357.4 56.9 A 34.156 34.156 0 0 1 353.639 54.515 Q 351.754 53.128 350.332 51.608 A 19.494 19.494 0 0 1 349.7 50.9 Q 346.9 47.6 346.9 41.55 A 14.056 14.056 0 0 1 349.952 32.829 A 19.741 19.741 0 0 1 351.9 30.65 A 19.623 19.623 0 0 1 355.673 27.742 A 13.679 13.679 0 0 1 362.65 25.8 A 13.468 13.468 0 0 1 366.757 26.397 A 10.697 10.697 0 0 1 371.75 29.75 Q 374.825 33.376 375.077 39.319 A 25.487 25.487 0 0 1 375.1 40.4 Q 375.1 43.1 374.5 46.2 L 365.4 45.4 A 45.792 45.792 0 0 0 365.571 43.913 Q 365.7 42.584 365.7 41.6 Q 365.7 38.039 364.643 36.592 A 2.285 2.285 0 0 0 362.7 35.6 A 3.136 3.136 0 0 0 360.891 36.188 Q 360.45 36.492 360.035 36.953 A 6.294 6.294 0 0 0 359.95 37.05 A 4.927 4.927 0 0 0 358.922 39.061 Q 358.7 39.916 358.7 40.95 A 10.429 10.429 0 0 0 358.834 42.668 Q 358.994 43.625 359.345 44.411 A 5.765 5.765 0 0 0 359.65 45 A 6.291 6.291 0 0 0 360.539 46.144 Q 361.516 47.157 363.15 48.15 Q 365.102 49.337 366.41 50.172 A 75.809 75.809 0 0 1 367.15 50.65 Q 368.6 51.6 370.6 53.3 A 11.641 11.641 0 0 1 374.68 61.766 A 15 15 0 0 1 374.7 62.55 A 12.173 12.173 0 0 1 373.827 67.229 A 11.369 11.369 0 0 1 370.45 71.7 Q 366.2 75.2 360.9 75.2 Q 355.6 75.2 351.35 72.35 Q 347.1 69.5 344.5 65.2 Z M 515.2 48.4 L 505.7 47.5 Q 505.834 46.559 505.878 45.258 A 40.222 40.222 0 0 0 505.9 43.9 A 11.7 11.7 0 0 0 505.435 40.686 A 14.202 14.202 0 0 0 505 39.4 Q 504.314 37.647 503.337 37.23 A 1.607 1.607 0 0 0 502.7 37.1 A 2.521 2.521 0 0 0 500.783 38.045 Q 499.449 39.538 498.682 43.389 A 30.861 30.861 0 0 0 498.65 43.55 Q 497.4 50 497.4 55.4 Q 497.4 64.5 501.1 64.5 A 2.85 2.85 0 0 0 502.7 63.884 Q 504.774 62.421 507.675 57.485 A 82.099 82.099 0 0 0 509.6 54 L 517 59.3 A 43.753 43.753 0 0 1 514.59 64.724 Q 513.141 67.438 511.424 69.555 A 24.124 24.124 0 0 1 510.25 70.9 A 13.764 13.764 0 0 1 505.826 74.108 A 12.948 12.948 0 0 1 500.5 75.2 A 13.696 13.696 0 0 1 491.848 72.114 A 18.66 18.66 0 0 1 490.25 70.7 A 13.966 13.966 0 0 1 486.91 65.238 Q 486.154 63.054 485.87 60.382 A 32.084 32.084 0 0 1 485.7 57 Q 485.7 47.2 488.9 37.5 A 23.568 23.568 0 0 1 491.306 32.405 A 19.344 19.344 0 0 1 494.25 28.8 A 12.112 12.112 0 0 1 501.548 25.492 A 16.362 16.362 0 0 1 503.3 25.4 A 9.769 9.769 0 0 1 510.477 28.517 A 15.835 15.835 0 0 1 512.45 31 Q 516.1 36.6 516.1 43.4 A 15.685 15.685 0 0 1 515.934 45.744 Q 515.713 47.202 515.2 48.4 Z M 312.2 75.3 L 303.8 74.6 L 303 71.4 A 20.583 20.583 0 0 1 297.649 73.583 A 17.763 17.763 0 0 1 293.4 74.1 Q 288.5 74.1 285.3 70.85 Q 282.463 67.968 282.141 62.845 A 21.49 21.49 0 0 1 282.1 61.5 A 11.552 11.552 0 0 1 285.225 53.609 A 18.366 18.366 0 0 1 288.15 51 A 24.109 24.109 0 0 1 301.731 46.412 A 29.193 29.193 0 0 1 302.1 46.4 L 302.1 43.7 A 24.809 24.809 0 0 0 301.977 41.116 Q 301.703 38.51 300.813 37.181 A 2.878 2.878 0 0 0 298.3 35.8 Q 296.4 35.8 294.85 38.45 A 18.681 18.681 0 0 0 293.121 42.448 A 22.761 22.761 0 0 0 292.6 44.5 L 283.4 43.6 A 34.708 34.708 0 0 1 285.665 36.181 A 27.836 27.836 0 0 1 289.1 30.35 A 14.152 14.152 0 0 1 293.44 26.53 Q 296.289 24.951 299.868 24.902 A 16.806 16.806 0 0 1 300.1 24.9 A 12.82 12.82 0 0 1 304.443 25.598 Q 308.043 26.886 310.15 30.55 Q 313.384 36.172 313.4 46.498 A 66.385 66.385 0 0 1 313.4 46.6 Q 313.4 54.563 312.697 67.156 A 844.577 844.577 0 0 1 312.2 75.3 Z M 446.8 75.3 L 438.4 74.6 L 437.6 71.4 A 20.583 20.583 0 0 1 432.249 73.583 A 17.763 17.763 0 0 1 428 74.1 Q 423.1 74.1 419.9 70.85 Q 417.063 67.968 416.741 62.845 A 21.49 21.49 0 0 1 416.7 61.5 A 11.552 11.552 0 0 1 419.825 53.609 A 18.366 18.366 0 0 1 422.75 51 A 24.109 24.109 0 0 1 436.331 46.412 A 29.193 29.193 0 0 1 436.7 46.4 L 436.7 43.7 A 24.809 24.809 0 0 0 436.577 41.116 Q 436.303 38.51 435.413 37.181 A 2.878 2.878 0 0 0 432.9 35.8 Q 431 35.8 429.45 38.45 A 18.681 18.681 0 0 0 427.721 42.448 A 22.761 22.761 0 0 0 427.2 44.5 L 418 43.6 A 34.708 34.708 0 0 1 420.265 36.181 A 27.836 27.836 0 0 1 423.7 30.35 A 14.152 14.152 0 0 1 428.04 26.53 Q 430.889 24.951 434.468 24.902 A 16.806 16.806 0 0 1 434.7 24.9 A 12.82 12.82 0 0 1 439.043 25.598 Q 442.643 26.886 444.75 30.55 Q 447.984 36.172 448 46.498 A 66.385 66.385 0 0 1 448 46.6 Q 448 54.563 447.297 67.156 A 844.577 844.577 0 0 1 446.8 75.3 Z M 278.6 31.3 L 278.6 40.8 A 385.688 385.688 0 0 0 276.338 40.806 Q 273.15 40.825 271.2 40.9 Q 270.924 50.109 270.902 70.852 A 3464.311 3464.311 0 0 0 270.9 74.5 L 259.1 73.4 Q 259.1 55.9 259.4 41.7 Q 257.9 41.7 253.7 42.2 L 252.2 34 Q 254.6 33.5 259.7 32.7 Q 259.853 27.034 260.241 17.383 A 3014.877 3014.877 0 0 1 260.5 11.1 L 272.4 12.2 A 688.262 688.262 0 0 0 271.58 29.066 A 624.925 624.925 0 0 0 271.5 31.4 A 91.595 91.595 0 0 1 272.881 31.356 Q 274.441 31.318 276.559 31.305 A 358.563 358.563 0 0 1 278.6 31.3 Z M 239.9 58.6 L 247.5 63.1 Q 245.6 66.4 243.85 68.7 A 13.479 13.479 0 0 1 242.139 70.536 Q 240.678 71.853 238.6 73.1 A 14.842 14.842 0 0 1 230.934 75.199 A 17.53 17.53 0 0 1 230.8 75.2 A 12.817 12.817 0 0 1 221.165 70.956 A 17.93 17.93 0 0 1 220.2 69.85 A 18.385 18.385 0 0 1 216.845 63.107 Q 216.107 60.418 215.945 57.227 A 36.161 36.161 0 0 1 215.9 55.4 A 51.612 51.612 0 0 1 218.158 40.004 A 47.875 47.875 0 0 1 219.6 36 A 19.649 19.649 0 0 1 223.177 30.365 A 18.207 18.207 0 0 1 225.35 28.35 A 15.324 15.324 0 0 1 228.37 26.468 A 11.03 11.03 0 0 1 233.05 25.4 Q 235.866 25.4 237.894 26.035 A 9.219 9.219 0 0 1 239.4 26.65 A 17.526 17.526 0 0 1 241.318 27.801 Q 242.434 28.578 243.25 29.45 A 9.066 9.066 0 0 1 244.288 30.816 Q 245.113 32.125 245.8 34 Q 246.85 36.863 247.308 38.724 A 20.993 20.993 0 0 1 247.35 38.9 A 20.072 20.072 0 0 1 247.604 40.178 Q 247.822 41.472 247.997 43.26 A 79.829 79.829 0 0 1 248.1 44.4 Q 248.5 49.2 248.5 53.1 Q 240.5 55.3 227.8 57.1 Q 228.007 59.866 228.597 61.867 A 12.206 12.206 0 0 0 229.2 63.5 A 7.836 7.836 0 0 0 229.719 64.464 Q 230.64 65.9 231.8 65.9 Q 234.851 65.9 238.225 61.193 A 34.631 34.631 0 0 0 239.9 58.6 Z M 403.2 58.6 L 410.8 63.1 Q 408.9 66.4 407.15 68.7 A 13.479 13.479 0 0 1 405.439 70.536 Q 403.978 71.853 401.9 73.1 A 14.842 14.842 0 0 1 394.234 75.199 A 17.53 17.53 0 0 1 394.1 75.2 A 12.817 12.817 0 0 1 384.465 70.956 A 17.93 17.93 0 0 1 383.5 69.85 A 18.385 18.385 0 0 1 380.145 63.107 Q 379.407 60.418 379.245 57.227 A 36.161 36.161 0 0 1 379.2 55.4 A 51.612 51.612 0 0 1 381.458 40.004 A 47.875 47.875 0 0 1 382.9 36 A 19.649 19.649 0 0 1 386.477 30.365 A 18.207 18.207 0 0 1 388.65 28.35 A 15.324 15.324 0 0 1 391.67 26.468 A 11.03 11.03 0 0 1 396.35 25.4 Q 399.166 25.4 401.194 26.035 A 9.219 9.219 0 0 1 402.7 26.65 A 17.526 17.526 0 0 1 404.618 27.801 Q 405.734 28.578 406.55 29.45 A 9.066 9.066 0 0 1 407.588 30.816 Q 408.413 32.125 409.1 34 Q 410.15 36.863 410.608 38.724 A 20.993 20.993 0 0 1 410.65 38.9 A 20.072 20.072 0 0 1 410.904 40.178 Q 411.122 41.472 411.297 43.26 A 79.829 79.829 0 0 1 411.4 44.4 Q 411.8 49.2 411.8 53.1 Q 403.8 55.3 391.1 57.1 Q 391.307 59.866 391.897 61.867 A 12.206 12.206 0 0 0 392.5 63.5 A 7.836 7.836 0 0 0 393.019 64.464 Q 393.94 65.9 395.1 65.9 Q 398.151 65.9 401.525 61.193 A 34.631 34.631 0 0 0 403.2 58.6 Z M 1.5 0 L 13.2 0.9 A 920.635 920.635 0 0 0 12.099 24.236 Q 11.7 36.033 11.7 46.5 Q 11.7 65.194 12.124 73.627 A 129.295 129.295 0 0 0 12.2 75 L 0.4 73.9 Q 0.094 65.938 0.022 52.846 A 1553.351 1553.351 0 0 1 0 44.35 Q 0 25.2 1.5 0 Z M 71.4 75.4 L 59.8 74.4 A 11866.412 11866.412 0 0 0 59.87 70.931 Q 60.085 60.246 60.099 58.41 A 28.83 28.83 0 0 0 60.1 58.2 Q 60.1 39.7 58.3 29.9 L 65.8 30.7 A 42.619 42.619 0 0 0 66.5 33.265 Q 66.869 34.46 67.281 35.505 A 25.71 25.71 0 0 0 67.4 35.8 A 45.758 45.758 0 0 1 69.395 31.968 Q 73.18 25.53 77.025 25.308 A 4.765 4.765 0 0 1 77.3 25.3 A 8.755 8.755 0 0 1 83.148 27.541 A 12.723 12.723 0 0 1 84.5 28.9 L 81.9 38.1 Q 80.305 37.003 77.915 37 A 10.345 10.345 0 0 0 77.9 37 A 3.624 3.624 0 0 0 75.206 38.31 Q 73.174 40.498 71.865 46.341 A 52.007 52.007 0 0 0 71.6 47.6 Q 71.8 54.6 71.8 61 A 244.183 244.183 0 0 1 71.706 67.575 Q 71.613 71.044 71.425 74.886 A 397.374 397.374 0 0 1 71.4 75.4 Z M 469.8 75.4 L 458.2 74.4 A 11866.412 11866.412 0 0 0 458.27 70.931 Q 458.485 60.246 458.499 58.41 A 28.83 28.83 0 0 0 458.5 58.2 Q 458.5 39.7 456.7 29.9 L 464.2 30.7 A 42.619 42.619 0 0 0 464.9 33.265 Q 465.269 34.46 465.681 35.505 A 25.71 25.71 0 0 0 465.8 35.8 A 45.758 45.758 0 0 1 467.795 31.968 Q 471.58 25.53 475.425 25.308 A 4.765 4.765 0 0 1 475.7 25.3 A 8.755 8.755 0 0 1 481.548 27.541 A 12.723 12.723 0 0 1 482.9 28.9 L 480.3 38.1 Q 478.705 37.003 476.315 37 A 10.345 10.345 0 0 0 476.3 37 A 3.624 3.624 0 0 0 473.606 38.31 Q 471.574 40.498 470.265 46.341 A 52.007 52.007 0 0 0 470 47.6 Q 470.2 54.6 470.2 61 A 244.183 244.183 0 0 1 470.106 67.575 Q 470.013 71.044 469.825 74.886 A 397.374 397.374 0 0 1 469.8 75.4 Z M 19.6 54.2 Q 19.6 44.9 23.4 36 A 19.3 19.3 0 0 1 27.316 30.191 A 18.22 18.22 0 0 1 29.05 28.65 Q 32.7 25.8 37.2 25.8 A 16.552 16.552 0 0 1 41.083 26.236 A 12.816 12.816 0 0 1 44.95 27.85 Q 48.2 29.9 49.9 33.3 A 32.477 32.477 0 0 1 53.197 47.407 A 37.557 37.557 0 0 1 53.2 47.9 A 45.515 45.515 0 0 1 51.981 58.64 A 37.179 37.179 0 0 1 48.75 67.25 A 19.994 19.994 0 0 1 45.881 71.429 A 12.457 12.457 0 0 1 36.3 75.7 A 18.24 18.24 0 0 1 28.799 74.271 Q 19.6 70.157 19.6 54.2 Z M 31.3 55.1 A 38.552 38.552 0 0 0 31.461 58.796 Q 31.811 62.403 32.917 64.299 A 3.764 3.764 0 0 0 36.3 66.4 A 1.84 1.84 0 0 0 37.607 65.78 Q 38.753 64.632 39.665 61.359 A 34.062 34.062 0 0 0 40 60.05 A 56.537 56.537 0 0 0 41.289 52.327 A 47.471 47.471 0 0 0 41.5 47.9 A 59.557 59.557 0 0 0 41.376 43.878 Q 40.969 37.9 39.226 35.993 A 2.529 2.529 0 0 0 37.3 35.1 A 2.416 2.416 0 0 0 35.569 35.908 Q 34.033 37.453 32.95 41.95 A 59.523 59.523 0 0 0 31.495 50.704 A 50.476 50.476 0 0 0 31.3 55.1 Z M 110.6 46.6 L 110.8 39 Q 108.054 36.065 106.385 35.909 A 1.979 1.979 0 0 0 106.2 35.9 Q 103.997 35.9 101.756 41.489 A 42.051 42.051 0 0 0 101.15 43.1 A 45.276 45.276 0 0 0 98.606 57.643 A 51.065 51.065 0 0 0 98.6 58.4 A 18.336 18.336 0 0 0 98.667 60.025 Q 98.839 61.95 99.45 63.1 Q 100.149 64.416 100.984 64.65 A 1.353 1.353 0 0 0 101.35 64.7 A 1.558 1.558 0 0 0 101.992 64.542 Q 102.878 64.138 104.1 62.7 A 14.105 14.105 0 0 0 105.159 61.258 Q 106.394 59.359 107.75 56.3 A 38.778 38.778 0 0 0 110.011 49.51 A 46.147 46.147 0 0 0 110.6 46.6 Z M 234 35.2 A 2.489 2.489 0 0 0 232.413 35.819 Q 231.503 36.558 230.684 38.18 A 17.485 17.485 0 0 0 230.05 39.6 A 27.737 27.737 0 0 0 228.6 44.67 A 37.891 37.891 0 0 0 228 49.8 Q 233.3 48.7 237.2 47.7 Q 237.2 36.004 234.398 35.252 A 1.53 1.53 0 0 0 234 35.2 Z M 397.3 35.2 A 2.489 2.489 0 0 0 395.713 35.819 Q 394.803 36.558 393.984 38.18 A 17.485 17.485 0 0 0 393.35 39.6 A 27.737 27.737 0 0 0 391.9 44.67 A 37.891 37.891 0 0 0 391.3 49.8 Q 396.6 48.7 400.5 47.7 Q 400.5 36.004 397.698 35.252 A 1.53 1.53 0 0 0 397.3 35.2 Z M 301.6 64.1 L 301.8 55.7 Q 298.719 55.962 296.626 56.891 A 8.502 8.502 0 0 0 294.7 58.05 Q 293.243 59.234 292.671 60.472 A 3.845 3.845 0 0 0 292.3 62.1 Q 292.3 65.076 295.587 65.284 A 8.122 8.122 0 0 0 296.1 65.3 A 12.785 12.785 0 0 0 299.207 64.899 A 17.159 17.159 0 0 0 301.6 64.1 Z M 436.2 64.1 L 436.4 55.7 Q 433.319 55.962 431.226 56.891 A 8.502 8.502 0 0 0 429.3 58.05 Q 427.843 59.234 427.271 60.472 A 3.845 3.845 0 0 0 426.9 62.1 Q 426.9 65.076 430.187 65.284 A 8.122 8.122 0 0 0 430.7 65.3 A 12.785 12.785 0 0 0 433.807 64.899 A 17.159 17.159 0 0 0 436.2 64.1 Z" vector-effect="non-scaling-stroke"/></g></svg>